<svg xmlns="http://www.w3.org/2000/svg" viewBox="-21 0 296 296"><defs><style>.cls-1{fill:#35495e;}.cls-2{fill:#41b883;}</style></defs><g id="Layer_2" data-name="Layer 2"><g id="Layer_1-2" data-name="Layer 1"><path class="cls-1" d="M26,258.07c-.77.12-1.58-3.68-9.58-29.25-.79-2.51-3.61-11.5-7.6-24.32l-.1-.32c-1.1-3.52-4.92-15.85-5.7-25.4-1.17-14.4,4.29-26.32,6.58-31.33a86.29,86.29,0,0,1,12.13-18.82A122.56,122.56,0,0,1,37,112.72c1.32-1.14,6-4.69,15.29-11.74,9.47-7.19,10.2-7.69,12.87-9.82,8.32-6.62,12.48-9.92,14.59-12.43C89.61,67,87.48,54.05,90.29,54c2.46,0,5.08,9.95,5.07,18.46a41,41,0,0,1-2.78,15.06A85.34,85.34,0,0,1,84,103c-2.82,4.08-4.85,6.34-4.7,9.86,0,.76.21,5,4,6.93,3.37,1.75,8,.86,10.87-.55,4.22-2.06,5-5.31,9.57-14.89a135.2,135.2,0,0,1,6.58-13c3.83-6.34,7.7-10.64,13.36-17,5.36-6,8-8.94,11.9-11.84,4.64-3.48,8.84-5.57,15.84-9.07,5.8-2.89,6.18-2.72,14.64-6.77,7.16-3.42,10.74-5.13,14.5-7.44,4.47-2.75,8.81-5.41,13.12-10a43.86,43.86,0,0,0,8.89-14.08c3.43-9,2-15,3.59-15.21,1.79-.26,4.85,7.36,6.32,14.14,1.69,7.78,1.23,14.24.79,20-.57,7.37-.86,11-2.1,14.25-4.23,10.92-14.47,18.67-19,22.13-5,3.77-7,4.41-10.14,8.06-2.12,2.48-7,8.18-5.36,14.83a12.19,12.19,0,0,0,5.88,8c5.56,3.12,12.44,1.48,16.17.59,7.87-1.87,12.84-6,16.67-9.21a36.89,36.89,0,0,0,8.91-9.92c4.75-8.19,2.61-15.08,4.4-15.36,2.1-.32,6.49,8.7,7.16,18.16a39.64,39.64,0,0,1-1.82,14.6,44.51,44.51,0,0,1-15,22.17c-2.83,2.22-4.19,2.55-8.2,5.17-9.59,6.29-13.27,9.25-15.42,11.08-4.17,3.52-6.29,5.35-8.38,8.43a28.72,28.72,0,0,0-4.43,11.2,26.37,26.37,0,0,0,.88,12.33c1.09,3.26,2.53,7.61,6.3,9.67,4.89,2.68,11.54.34,15.54-2.33,10.4-7,6-18.2,16.08-26.16,7.15-5.65,17.69-6.09,19-3.81.86,1.46-2.53,3.3-5.65,9.33s-3.55,11.4-4,17.37a72.09,72.09,0,0,0,.49,14.49c1.73,13.61,5.27,15.72,6.76,27.57.72,5.77,1.45,11.6-.54,18.51-3.76,13.06-15.05,22.49-17.55,21.18-2.19-1.16,4.4-9.5,3.51-23.81-.05-.74-.19-3-.67-5.88-1.42-8.45-3.88-11.44-5.86-17.82-3.29-10.55-.62-17.89-3.17-18.71-2-.66-3.38,4.28-9.2,7.28-7,3.59-14.68,1.42-17,.76-7.61-2.14-12-7-14.5-9.72a41.35,41.35,0,0,1-8.37-14.82,51.32,51.32,0,0,1-2.2-26.55h0c2.71-11.59,9.66-17.17,6.79-20.51-2.15-2.5-6.13,0-13-1.84-10.34-2.74-14.22-13.18-15-15.37-2.89-7.8-.27-13.35-2.93-14-3-.8-8.46,5.48-10.82,8.87-.35.51-.82,1.18-1.34,2a42.62,42.62,0,0,0-4,8.63c-2.1,6.24-1.94,10.91-3.23,15.78-.6,2.25-3.41,11.7-12.37,17.87-9.42,6.47-20,5.44-22.78,5.12-2.35-.27-13-1.46-20.14-9.25-6.09-6.6-5-12.38-9.22-13.33-4.4-1-9.25,4.55-13.65,9.45a60.74,60.74,0,0,0-11.25,18.8c-1.33,3.4-3.79,10.4-5.07,22.33-1.23,11.42-.57,19.87,0,27.68C26.39,239.85,27.68,257.82,26,258.07Z"/><path class="cls-2" d="M34.27,269c0-41.54,40.62-75.21,90.73-75.21S215.73,227.5,215.73,269"/><ellipse class="cls-2" cx="125.5" cy="182.19" rx="10.5" ry="11" transform="translate(-58.56 304.94) rotate(-89.14)"/><path class="cls-1" d="M1.48,272.69h247a1.48,1.48,0,0,1,1.48,1.48v1.52a20,20,0,0,1-20,20H21.52A21.52,21.52,0,0,1,0,274.18v0a1.48,1.48,0,0,1,1.48-1.48Z"/></g></g></svg>